<?xml version="1.0" encoding="UTF-8"?>
<!-- Generator: visioncortex VTracer -->
<svg id="svg" version="1.1" xmlns="http://www.w3.org/2000/svg" style="display: block;" viewBox="0 0 430 558"><path d="M0 0 C24.74671479 -3.74080109 49.60378822 -4.62797014 74.60024625 -4.57164475 C78.37932438 -4.56313061 82.15814105 -4.57164364 85.9372142 -4.58015916 C154.95396775 -4.54931902 234.84922757 6.02850023 286.22463465 57.0363813 C337.92885729 111.77775832 343.65070545 214.55034399 347.13190109 341.73473784 C347.12944062 344.18685524 347.13190095 346.63891886 347.13600188 349.09103349 C347.2530989 425.2047688 343.03858947 503.59536623 286.22463465 631.337358 C233.81276236 683.37428968 152.39309536 693.10364581 82.15863496 692.94538406 C78.37955683 692.93686991 74.60074016 692.94538294 70.82166702 692.95389846 C1.80491346 692.92305832 -78.09034636 682.34523907 -129.46575344 631.337358 C-181.16997608 576.59598099 -186.89182424 473.82339531 -190.37301987 346.63900146 C-190.37055941 344.18688406 -190.37301974 341.73482044 -190.37712067 339.28270581 C-190.49421768 263.1689705 -186.27970826 184.77837307 0 0 Z " transform="translate(136.6205593943596,-65.18686965107918)" style="fill: #FEFEFE;"/><path d="M0 0 C8.00549687 6.28588361 16.45665288 13.26581077 21.69140625 22.11328125 C21.69140625 23.10328125 21.69140625 24.09328125 21.69140625 25.11328125 C22.68140625 25.44328125 23.67140625 25.77328125 24.69140625 26.11328125 C25.76635742 27.63208008 25.76635742 27.63208008 26.734375 29.5703125 C27.08564453 30.27091797 27.43691406 30.97152344 27.79882812 31.69335938 C28.15525391 32.43005859 28.51167969 33.16675781 28.87890625 33.92578125 C29.24693359 34.65087891 29.61496094 35.37597656 29.99414062 36.12304688 C31.84626675 39.87884252 32.69140625 41.78620074 32.69140625 46.11328125 C33.35140625 46.11328125 34.01140625 46.11328125 34.69140625 46.11328125 C35.6232797 48.32568829 36.37056342 50.44812769 37.06640625 52.73828125 C37.28192139 53.43961182 37.49743652 54.14094238 37.71948242 54.86352539 C39.52546311 61.02061008 40.83455166 67.24480971 42.00390625 73.55078125 C42.17519043 74.46102051 42.34647461 75.37125977 42.52294922 76.30908203 C43.29185474 80.69288364 43.76501187 84.81766516 43.671875 89.2734375 C43.67832031 90.54058594 43.68476563 91.80773437 43.69140625 93.11328125 C44.35140625 93.11328125 45.01140625 93.11328125 45.69140625 93.11328125 C46.02292488 95.52148263 46.2113131 97.81618685 46.31640625 100.23828125 C46.35362793 100.96821289 46.39084961 101.69814453 46.42919922 102.45019531 C46.92520874 112.97839736 46.7446816 123.46123602 46.31640625 133.98828125 C46.28562988 134.88772461 46.25485352 135.78716797 46.22314453 136.71386719 C46.12316493 138.85202015 45.91838074 140.9848601 45.69140625 143.11328125 C45.03140625 143.11328125 44.37140625 143.11328125 43.69140625 143.11328125 C43.51224593 145.18019211 43.51224593 145.18019211 43.67578125 147.77734375 C43.7914117 154.47748573 42.94029004 160.87377757 41.94140625 167.48828125 C41.67287842 169.30537598 41.67287842 169.30537598 41.39892578 171.15917969 C40.23104917 178.91306443 38.9762433 186.6496126 37.56640625 194.36328125 C37.40817383 195.2557959 37.24994141 196.14831055 37.08691406 197.06787109 C36.69848278 199.09919568 36.20726848 201.110522 35.69140625 203.11328125 C35.03140625 203.11328125 34.37140625 203.11328125 33.69140625 203.11328125 C33.28949306 204.88210528 33.28949306 204.88210528 33.19116211 207.09350586 C32.7779152 211.6969966 31.881186 215.97051332 30.6953125 220.4296875 C30.50170639 221.1716185 30.30810028 221.9135495 30.10862732 222.67796326 C29.70254494 224.22570102 29.2931797 225.77258099 28.88061523 227.31860352 C28.24788652 229.69842264 27.63231663 232.08227526 27.01757812 234.46679688 C26.61951186 235.9755305 26.22046001 237.48400452 25.8203125 238.9921875 C25.63690811 239.70766251 25.45350372 240.42313751 25.26454163 241.16029358 C24.81093993 242.83212063 24.26119486 244.47740193 23.69140625 246.11328125 C23.03140625 246.11328125 22.37140625 246.11328125 21.69140625 246.11328125 C21.06111477 248.14780562 21.06111477 248.14780562 20.69140625 250.67578125 C19.9287265 254.93105003 18.94939533 258.97988857 17.69140625 263.11328125 C18.68140625 263.11328125 19.67140625 263.11328125 20.69140625 263.11328125 C20.69140625 263.77328125 20.69140625 264.43328125 20.69140625 265.11328125 C21.66078125 265.21640625 22.63015625 265.31953125 23.62890625 265.42578125 C29.3101595 266.05187855 34.6801147 269.1019897 38.69140625 273.11328125 C39.02219902 277.57898362 38.66863675 280.20308661 36.69140625 284.11328125 C36.12384508 286.49388507 35.68888954 288.87721306 35.25390625 291.28515625 C35.06828125 291.8884375 34.88265625 292.49171875 34.69140625 293.11328125 C34.03140625 293.11328125 33.37140625 293.11328125 32.69140625 293.11328125 C32.53671875 294.28890625 32.53671875 294.28890625 32.37890625 295.48828125 C31.42476286 300.51921912 29.09410121 304.62706851 26.69140625 309.11328125 C27.68140625 309.11328125 28.67140625 309.11328125 29.69140625 309.11328125 C29.69140625 309.77328125 29.69140625 310.43328125 29.69140625 311.11328125 C31.68968508 311.4567821 33.69011158 311.78781118 35.69140625 312.11328125 C38.796875 313.3828125 38.796875 313.3828125 41.87890625 314.92578125 C42.90371094 315.42722656 43.92851562 315.92867188 44.984375 316.4453125 C47.69140625 318.11328125 47.69140625 318.11328125 49.10546875 320.17578125 C51.51246285 323.11634547 54.2555616 323.39586847 57.87890625 324.30078125 C60.15625025 324.87992344 62.42941314 325.47681555 64.69140625 326.11328125 C64.69140625 326.44328125 64.69140625 326.77328125 64.69140625 327.11328125 C56.11997768 326.11328125 56.11997768 326.11328125 52.69140625 325.11328125 C53.02140625 325.77328125 53.35140625 326.43328125 53.69140625 327.11328125 C54.79172892 334.34397309 51.50744848 340.10468843 47.69140625 346.11328125 C45.54815925 348.43513216 43.21870204 350.23431787 40.69140625 352.11328125 C39.51578125 353.35078125 39.51578125 353.35078125 38.31640625 354.61328125 C29.39140625 363.11328125 29.39140625 363.11328125 24.69140625 363.11328125 C24.3259218 364.43816238 23.99764965 365.77346639 23.69140625 367.11328125 C23.03140625 368.10328125 22.37140625 369.09328125 21.69140625 370.11328125 C22.94953125 370.21640625 24.20765625 370.31953125 25.50390625 370.42578125 C30.99686404 371.03805361 36.53019545 372.09703255 41.69140625 374.11328125 C41.69140625 374.77328125 41.69140625 375.43328125 41.69140625 376.11328125 C42.39910156 376.11070312 43.10679687 376.108125 43.8359375 376.10546875 C52.91127622 376.13029868 64.28920423 383.03240785 70.83203125 389.09765625 C74.26742613 392.81235152 75.71659965 395.13572895 76.69140625 400.11328125 C77.35140625 400.11328125 78.01140625 400.11328125 78.69140625 400.11328125 C80.65576698 404.82774701 80.24191314 410.3516592 78.75390625 415.11328125 C74.05386452 421.94970559 68.45292539 426.57458771 60.34375 428.54296875 C59.79847656 428.73117187 59.25320313 428.919375 58.69140625 429.11328125 C58.69140625 429.77328125 58.69140625 430.43328125 58.69140625 431.11328125 C56.93823242 432.01123047 56.93823242 432.01123047 54.484375 432.91796875 C53.59339111 433.25223877 52.70240723 433.58650879 51.78442383 433.9309082 C50.34619263 434.45430786 50.34619263 434.45430786 48.87890625 434.98828125 C47.90783936 435.34688232 46.93677246 435.7054834 45.9362793 436.07495117 C44.02335941 436.78087721 42.10940343 437.48400307 40.19433594 438.18408203 C38.27673365 438.89598159 36.37468518 439.64990115 34.48046875 440.421875 C28.16691112 442.98115625 21.8863289 443.97412936 15.18530273 444.96557617 C10.21151737 445.73899532 6.08184688 446.92327862 1.59375 449.26953125 C-0.59441413 450.24005169 -2.49519437 450.50769136 -4.87109375 450.73828125 C-6.00546875 450.86203125 -7.13984375 450.98578125 -8.30859375 451.11328125 C-8.30859375 451.77328125 -8.30859375 452.43328125 -8.30859375 453.11328125 C-9.79907346 453.14923458 -11.29098754 453.12998538 -12.78125 453.0859375 C-15.24860791 453.19334739 -15.24860791 453.19334739 -17.30859375 454.11328125 C-18.54137879 457.54220293 -18.0498979 460.96774755 -17.74609375 464.55078125 C-16.86050912 479.38681142 -16.86050912 479.38681142 -19.30859375 486.11328125 C-19.96859375 486.11328125 -20.62859375 486.11328125 -21.30859375 486.11328125 C-21.43234375 486.79390625 -21.55609375 487.47453125 -21.68359375 488.17578125 C-22.52044312 492.1089733 -24.1520956 494.71516296 -26.30859375 498.11328125 C-29.32727809 499.62262342 -31.98156604 499.28838797 -35.30859375 499.11328125 C-38.33675575 497.09450659 -38.97801166 496.29919152 -40.49609375 493.17578125 C-41.01236328 492.14130859 -41.01236328 492.14130859 -41.5390625 491.0859375 C-42.30859375 489.11328125 -42.30859375 489.11328125 -42.30859375 486.11328125 C-42.96859375 486.11328125 -43.62859375 486.11328125 -44.30859375 486.11328125 C-46.55778477 480.00845361 -46.31610842 473.88157642 -45.82421875 467.51074219 C-45.29344132 460.75610652 -45.29344132 460.75610652 -46.30859375 454.11328125 C-50.62068458 451.42916517 -54.37210698 451.86916927 -59.30859375 452.11328125 C-59.30859375 451.45328125 -59.30859375 450.79328125 -59.30859375 450.11328125 C-60.31921875 449.96890625 -61.32984375 449.82453125 -62.37109375 449.67578125 C-66.30859375 449.11328125 -66.30859375 449.11328125 -69.40234375 447.70703125 C-74.84284325 445.28104888 -80.71000854 444.57907281 -86.54101562 443.56445312 C-87.41177734 443.40396484 -88.28253906 443.24347656 -89.1796875 443.078125 C-90.3696936 442.87110962 -90.3696936 442.87110962 -91.58374023 442.65991211 C-92.15294189 442.47952393 -92.72214355 442.29913574 -93.30859375 442.11328125 C-93.30859375 441.45328125 -93.30859375 440.79328125 -93.30859375 440.11328125 C-95.13941746 439.9018647 -96.97098043 439.69597565 -98.8046875 439.51123047 C-103.66744623 438.73838562 -108.20787285 436.88142909 -112.80859375 435.17578125 C-113.82179687 434.81548828 -114.835 434.45519531 -115.87890625 434.08398438 C-117.31363281 433.55901367 -117.31363281 433.55901367 -118.77734375 433.0234375 C-119.64810547 432.70511963 -120.51886719 432.38680176 -121.41601562 432.05883789 C-122.04056641 431.7468042 -122.66511719 431.43477051 -123.30859375 431.11328125 C-123.30859375 430.45328125 -123.30859375 429.79328125 -123.30859375 429.11328125 C-124.95092147 428.3887249 -126.6248421 427.7355373 -128.30859375 427.11328125 C-132.89923708 425.10487479 -135.9985121 422.89623171 -139.30859375 419.11328125 C-139.63859375 418.12328125 -139.96859375 417.13328125 -140.30859375 416.11328125 C-140.96859375 415.78328125 -141.62859375 415.45328125 -142.30859375 415.11328125 C-143.32687594 410.33178228 -144.01791908 404.77507759 -142.30859375 400.11328125 C-141.64859375 400.11328125 -140.98859375 400.11328125 -140.30859375 400.11328125 C-140.24671875 399.26765625 -140.18484375 398.42203125 -140.12109375 397.55078125 C-138.58216229 391.0399174 -133.17645063 387.48306538 -127.74609375 383.98828125 C-121.32811851 380.31522465 -112.80899853 376.11328125 -105.30859375 376.11328125 C-105.30859375 375.45328125 -105.30859375 374.79328125 -105.30859375 374.11328125 C-102.64303167 373.13154522 -100.03072158 372.27916974 -97.30859375 371.48828125 C-96.54546875 371.25882812 -95.78234375 371.029375 -94.99609375 370.79296875 C-93.10267992 370.2249446 -91.20592463 369.66808113 -89.30859375 369.11328125 C-89.96859375 368.45328125 -90.62859375 367.79328125 -91.30859375 367.11328125 C-91.24671875 366.12328125 -91.18484375 365.13328125 -91.12109375 364.11328125 C-91.18296875 363.12328125 -91.24484375 362.13328125 -91.30859375 361.11328125 C-93.42644488 359.99543012 -93.42644488 359.99543012 -96.30859375 359.11328125 C-101.11737292 355.96236748 -105.40425387 352.33418923 -109.30859375 348.11328125 C-110.17484375 347.18515625 -111.04109375 346.25703125 -111.93359375 345.30078125 C-116.21961996 339.54848292 -117.87603668 334.34817867 -117.30859375 327.11328125 C-116.97859375 326.12328125 -116.64859375 325.13328125 -116.30859375 324.11328125 C-119.37134103 325.02912298 -122.43373747 325.94613303 -125.49609375 326.86328125 C-126.40415771 327.13479004 -127.31222168 327.40629883 -128.24780273 327.68603516 C-132.31380997 328.90414451 -136.37756015 330.12620769 -140.42578125 331.40234375 C-141.56273437 331.76070313 -142.6996875 332.1190625 -143.87109375 332.48828125 C-144.86238281 332.80539062 -145.85367188 333.1225 -146.875 333.44921875 C-149.30859375 334.11328125 -149.30859375 334.11328125 -152.30859375 334.11328125 C-152.37366301 336.09789362 -152.42475165 338.08759176 -152.31640625 340.0703125 C-152.30859375 342.11328125 -152.30859375 342.11328125 -153.30859375 345.11328125 C-156.12109375 346.05078125 -156.12109375 346.05078125 -159.30859375 346.11328125 C-161.68359375 344.42578125 -161.68359375 344.42578125 -163.30859375 342.11328125 C-163.30859375 340.79328125 -163.30859375 339.47328125 -163.30859375 338.11328125 C-165.2698813 337.28948565 -165.2698813 337.28948565 -167.30859375 337.11328125 C-158.09310056 332.82700535 -148.18131944 330.33396659 -138.41796875 327.60546875 C-137.65461716 327.39160522 -136.89126556 327.1777417 -136.1047821 326.95739746 C-132.94554475 326.07290116 -129.78624499 325.18890697 -126.62353516 324.31689453 C-124.28211072 323.67025139 -121.94363725 323.01377238 -119.60546875 322.35546875 C-118.52600983 322.06166824 -118.52600983 322.06166824 -117.42474365 321.76193237 C-115.70121622 321.27224778 -114.00151243 320.70010674 -112.30859375 320.11328125 C-111.97859375 319.45328125 -111.64859375 318.79328125 -111.30859375 318.11328125 C-108.86573686 316.82480542 -106.44146754 315.63500421 -103.93359375 314.48828125 C-102.90492188 314.00101562 -102.90492188 314.00101562 -101.85546875 313.50390625 C-98.84684408 312.11080767 -96.66243806 311.11328125 -93.30859375 311.11328125 C-93.30859375 310.45328125 -93.30859375 309.79328125 -93.30859375 309.11328125 C-92.31859375 309.11328125 -91.32859375 309.11328125 -90.30859375 309.11328125 C-90.66953125 308.42621094 -91.03046875 307.73914063 -91.40234375 307.03125 C-91.86640625 306.13019531 -92.33046875 305.22914063 -92.80859375 304.30078125 C-93.5046875 302.96080078 -93.5046875 302.96080078 -94.21484375 301.59375 C-95.30859375 299.11328125 -95.30859375 299.11328125 -95.30859375 296.11328125 C-95.96859375 296.11328125 -96.62859375 296.11328125 -97.30859375 296.11328125 C-98.10332981 293.8160442 -98.76690809 291.58610536 -99.37109375 289.23828125 C-100.5309195 284.56544736 -100.5309195 284.56544736 -102.30859375 280.11328125 C-102.77302313 273.72737724 -102.77302313 273.72737724 -101.1328125 271.55859375 C-98.84843109 269.74869842 -96.52637775 268.62552287 -93.87109375 267.42578125 C-92.92363281 266.98878906 -91.97617188 266.55179687 -91 266.1015625 C-88.30859375 265.11328125 -88.30859375 265.11328125 -84.30859375 265.11328125 C-84.30859375 264.45328125 -84.30859375 263.79328125 -84.30859375 263.11328125 C-83.31859375 263.11328125 -82.32859375 263.11328125 -81.30859375 263.11328125 C-82.24136649 259.94520303 -83.18068536 256.77910052 -84.12109375 253.61328125 C-84.38212891 252.72640625 -84.64316406 251.83953125 -84.91210938 250.92578125 C-86.09340582 246.95895861 -87.29676167 243.04180292 -88.80859375 239.1875 C-90.7866575 234.05167997 -92.11715437 228.74746582 -93.49609375 223.42578125 C-93.76873047 222.40677734 -94.04136719 221.38777344 -94.32226562 220.33789062 C-94.57943359 219.35240234 -94.83660156 218.36691406 -95.1015625 217.3515625 C-95.33383545 216.46509033 -95.5661084 215.57861816 -95.80541992 214.6652832 C-96.30859375 212.11328125 -96.30859375 212.11328125 -96.2590332 209.28588867 C-96.28356567 208.210448 -96.28356567 208.210448 -96.30859375 207.11328125 C-96.96859375 207.11328125 -97.62859375 207.11328125 -98.30859375 207.11328125 C-99.03881836 204.72436523 -99.03881836 204.72436523 -99.7109375 201.359375 C-99.96020996 200.12292236 -100.20948242 198.88646973 -100.46630859 197.61254883 C-100.72716089 196.258804 -100.98706895 194.90487694 -101.24609375 193.55078125 C-101.44443817 192.53544815 -101.44443817 192.53544815 -101.64678955 191.49960327 C-103.40067726 182.50929986 -104.97476578 173.50772497 -106.18359375 164.42578125 C-106.303396 163.53882568 -106.42319824 162.65187012 -106.54663086 161.73803711 C-107.23199871 156.16684724 -107.35453053 150.76800085 -107.15283203 145.15698242 C-107.2042334 144.48256104 -107.25563477 143.80813965 -107.30859375 143.11328125 C-107.96859375 143.11328125 -108.62859375 143.11328125 -109.30859375 143.11328125 C-109.63571584 140.04574013 -109.82840165 137.06618565 -109.93359375 133.98828125 C-109.97009033 133.0849707 -110.00658691 132.18166016 -110.04418945 131.25097656 C-110.14682673 128.5386604 -110.23140669 125.82643157 -110.30859375 123.11328125 C-110.33195801 122.34725586 -110.35532227 121.58123047 -110.37939453 120.79199219 C-110.61349275 112.2346202 -110.61349275 112.2346202 -110.30859375 109.11328125 C-109.64859375 109.11328125 -108.98859375 109.11328125 -108.30859375 109.11328125 C-108.26365558 106.98834792 -108.33291433 104.8613038 -108.43359375 102.73828125 C-108.84138056 85.46731033 -105.10458675 67.65050194 -100.30859375 51.11328125 C-100.02886719 50.13488281 -99.74914062 49.15648437 -99.4609375 48.1484375 C-98.83481207 46.10645053 -98.08956284 44.10120256 -97.30859375 42.11328125 C-96.64859375 42.11328125 -95.98859375 42.11328125 -95.30859375 42.11328125 C-94.62620021 40.11859243 -93.96488891 38.11670859 -93.30859375 36.11328125 C-92.52780587 34.32823861 -91.71305107 32.55779998 -90.87109375 30.80078125 C-90.25427734 29.50720703 -90.25427734 29.50720703 -89.625 28.1875 C-88.30859375 26.11328125 -88.30859375 26.11328125 -85.30859375 25.11328125 C-84.94477506 23.78794173 -84.61676786 22.45265334 -84.30859375 21.11328125 C-79.76570416 14.17061665 -73.48765394 6.47199636 -66.30859375 2.11328125 C-65.31859375 2.11328125 -64.32859375 2.11328125 -63.30859375 2.11328125 C-62.97859375 1.12328125 -62.64859375 0.13328125 -62.30859375 -0.88671875 C-45.11834706 -13.57475797 -16.92439862 -11.77897787 0 0 Z " transform="translate(241.30859375,43.88671875)" style="fill: #28767D;"/><path d="M0 0 C0 0.66 0 1.32 0 2 C0.763125 1.855625 1.52625 1.71125 2.3125 1.5625 C4.1378125 1.2840625 4.1378125 1.2840625 6 1 C6.8345874 0.80744629 7.6691748 0.61489258 8.52905273 0.41650391 C11.52367731 -0.1248169 13.9737522 -0.37784335 17 0 C20.11424524 2.39852787 21.81708984 5.43107462 23.75 8.8125 C24.85018167 10.57687202 25.95044131 12.34119543 27.05078125 14.10546875 C27.5607666 14.9567334 28.07075195 15.80799805 28.59619141 16.68505859 C30.25669966 19.4233089 32.06248097 22.02977498 33.9375 24.625 C35.92973243 27.45785734 37.89142406 30.3058861 39.8125 33.1875 C40.29332031 33.90550781 40.77414063 34.62351562 41.26953125 35.36328125 C42.66718785 37.49289345 44.03153155 39.63643504 45.38671875 41.79296875 C46.25771572 43.15370779 47.12880992 44.51438459 48 45.875 C48.40323486 46.53008545 48.80646973 47.1851709 49.22192383 47.86010742 C51.95797226 52.09633907 54.24107085 53.98248215 59 56 C61.10831259 58.97080411 61 60.19114823 61 64 C61.66 64 62.32 64 63 64 C63.625 66 63.625 66 64 68 C62.6078125 67.9071875 62.6078125 67.9071875 61.1875 67.8125 C55.91623039 67.7799613 51.00024125 69.48093937 46 71 C46.46818652 74.03280973 46.46818652 74.03280973 48 77 C51.2396224 77.84743177 51.2396224 77.84743177 54.875 78.125 C58.44140625 78.9921875 58.44140625 78.9921875 61 81 C61.67381145 87.68285892 59.03502295 94.71040162 57 101 C57.68642578 99.80310547 57.68642578 99.80310547 58.38671875 98.58203125 C60.14002912 95.77588559 60.89130924 94.9770171 64 94 C65.99981237 93.97260531 68.00022517 93.96998974 70 94 C69.55720703 92.66195312 69.55720703 92.66195312 69.10546875 91.296875 C68.14857401 87.59959659 67.49898511 84.80015066 68 81 C71.31383401 79.08196427 74.21931458 78.51505227 77.98828125 77.90625 C78.98214844 77.6071875 79.97601563 77.308125 81 77 C82.19712177 74.57385023 82.19712177 74.57385023 82 72 C77.99180229 68.26822972 72.22408069 67.86222691 67 67 C71.18334277 57.49240279 77.65228485 49.28634805 84 41.125 C85.99587216 38.5246637 87.74100393 35.82740144 89.4453125 33.03125 C89.88617188 32.30921387 90.32703125 31.58717773 90.78125 30.84326172 C91.66330971 29.38715806 92.5360518 27.92536084 93.3984375 26.45751953 C93.80578125 25.78317871 94.213125 25.10883789 94.6328125 24.4140625 C95.17252686 23.50068115 95.17252686 23.50068115 95.72314453 22.56884766 C97.25835071 20.68256948 98.82755875 20.03446904 101 19 C101.58537249 17.16094198 101.58537249 17.16094198 102 15 C103.07014106 13.13411302 104.20134611 11.3025739 105.375 9.5 C106.28378906 8.09234375 106.28378906 8.09234375 107.2109375 6.65625 C107.80132812 5.7796875 108.39171875 4.903125 109 4 C109.43699219 3.22269531 109.87398437 2.44539063 110.32421875 1.64453125 C112 0 112 0 114.99609375 -0.20703125 C116.13175781 -0.07683594 117.26742187 0.05335938 118.4375 0.1875 C119.57058594 0.30480469 120.70367187 0.42210937 121.87109375 0.54296875 C125 1 125 1 127.22265625 1.67578125 C129.34062925 2.27486677 129.34062925 2.27486677 132 0 C134.8125 0.9765625 134.8125 0.9765625 138 2.625 C139.5778125 3.41777344 139.5778125 3.41777344 141.1875 4.2265625 C144 6 144 6 145.42578125 8.07421875 C147.82370894 11.00766379 150.57612449 11.28557645 154.1875 12.1875 C156.464844 12.76664219 158.73800689 13.3635343 161 14 C161 14.33 161 14.66 161 15 C152.42857143 14 152.42857143 14 149 13 C149.33 13.66 149.66 14.32 150 15 C151.10032267 22.23069184 147.81604223 27.99140718 144 34 C141.856753 36.32185091 139.52729579 38.12103662 137 40 C136.21625 40.825 135.4325 41.65 134.625 42.5 C125.7 51 125.7 51 121 51 C120.63451555 52.32488113 120.3062434 53.66018514 120 55 C119.34 55.99 118.68 56.98 118 58 C119.258125 58.103125 120.51625 58.20625 121.8125 58.3125 C127.30545779 58.92477236 132.8387892 59.9837513 138 62 C138 62.66 138 63.32 138 64 C138.70769531 63.99742187 139.41539062 63.99484375 140.14453125 63.9921875 C149.21986997 64.01701743 160.59779798 70.9191266 167.140625 76.984375 C170.57601988 80.69907027 172.0251934 83.0224477 173 88 C173.66 88 174.32 88 175 88 C176.96436073 92.71446576 176.55050689 98.23837795 175.0625 103 C170.36245827 109.83642434 164.76151914 114.46130646 156.65234375 116.4296875 C156.10707031 116.61789062 155.56179688 116.80609375 155 117 C155 117.66 155 118.32 155 119 C153.24682617 119.89794922 153.24682617 119.89794922 150.79296875 120.8046875 C149.90198486 121.13895752 149.01100098 121.47322754 148.09301758 121.81762695 C147.13419678 122.16656006 146.17537598 122.51549316 145.1875 122.875 C144.21643311 123.23360107 143.24536621 123.59220215 142.24487305 123.96166992 C140.33195316 124.66759596 138.41799718 125.37072182 136.50292969 126.07080078 C134.5853274 126.78270034 132.68327893 127.5366199 130.7890625 128.30859375 C124.47550487 130.867875 118.19492265 131.86084811 111.49389648 132.85229492 C106.52011112 133.62571407 102.39044063 134.80999737 97.90234375 137.15625 C95.71417962 138.12677044 93.81339938 138.39441011 91.4375 138.625 C90.303125 138.74875 89.16875 138.8725 88 139 C88 139.66 88 140.32 88 141 C86.50952029 141.03595333 85.01760621 141.01670413 83.52734375 140.97265625 C81.05998584 141.08006614 81.05998584 141.08006614 79 142 C77.76721496 145.42892168 78.25869585 148.8544663 78.5625 152.4375 C79.44808463 167.27353017 79.44808463 167.27353017 77 174 C76.34 174 75.68 174 75 174 C74.87625 174.680625 74.7525 175.36125 74.625 176.0625 C73.78815063 179.99569205 72.15649815 182.60188171 70 186 C66.98131566 187.50934217 64.32702771 187.17510672 61 187 C57.971838 184.98122534 57.33058209 184.18591027 55.8125 181.0625 C55.46832031 180.37285156 55.12414062 179.68320312 54.76953125 178.97265625 C54 177 54 177 54 174 C53.34 174 52.68 174 52 174 C49.75080898 167.89517236 49.99248533 161.76829517 50.484375 155.39746094 C51.01515243 148.64282527 51.01515243 148.64282527 50 142 C45.68790917 139.31588392 41.93648677 139.75588802 37 140 C37 139.34 37 138.68 37 138 C35.989375 137.855625 34.97875 137.71125 33.9375 137.5625 C30 137 30 137 26.90625 135.59375 C21.4657505 133.16776763 15.59858521 132.46579156 9.76757812 131.45117188 C8.89681641 131.29068359 8.02605469 131.13019531 7.12890625 130.96484375 C6.33556885 130.8268335 5.54223145 130.68882324 4.72485352 130.54663086 C4.15565186 130.36624268 3.5864502 130.18585449 3 130 C3 129.34 3 128.68 3 128 C1.16917629 127.78858345 -0.66238668 127.5826944 -2.49609375 127.39794922 C-7.35885248 126.62510437 -11.8992791 124.76814784 -16.5 123.0625 C-17.51320312 122.70220703 -18.52640625 122.34191406 -19.5703125 121.97070312 C-20.52679688 121.62072266 -21.48328125 121.27074219 -22.46875 120.91015625 C-23.33951172 120.59183838 -24.21027344 120.27352051 -25.10742188 119.94555664 C-25.73197266 119.63352295 -26.35652344 119.32148926 -27 119 C-27 118.34 -27 117.68 -27 117 C-28.64232772 116.27544365 -30.31624835 115.62225605 -32 115 C-36.59064333 112.99159354 -39.68991835 110.78295046 -43 107 C-43.33 106.01 -43.66 105.02 -44 104 C-44.66 103.67 -45.32 103.34 -46 103 C-47.01828219 98.21850103 -47.70932533 92.66179634 -46 88 C-45.34 88 -44.68 88 -44 88 C-43.9071875 86.7315625 -43.9071875 86.7315625 -43.8125 85.4375 C-42.27356854 78.92663615 -36.86785688 75.36978413 -31.4375 71.875 C-25.01952476 68.2019434 -16.50040478 64 -9 64 C-9 63.34 -9 62.68 -9 62 C-6.33443792 61.01826397 -3.72212783 60.16588849 -1 59.375 C0.1446875 59.03082031 0.1446875 59.03082031 1.3125 58.6796875 C3.20591383 58.11166335 5.10266912 57.55479988 7 57 C6.34 56.34 5.68 55.68 5 55 C5.061875 54.01 5.12375 53.02 5.1875 52 C5.125625 51.01 5.06375 50.02 5 49 C2.88214887 47.88214887 2.88214887 47.88214887 0 47 C-4.80877917 43.84908623 -9.09566012 40.22090798 -13 36 C-13.86625 35.071875 -14.7325 34.14375 -15.625 33.1875 C-19.91102621 27.43520167 -21.56744293 22.23489742 -21 15 C-20.67 14.01 -20.34 13.02 -20 12 C-23.06274728 12.91584173 -26.12514372 13.83285178 -29.1875 14.75 C-30.09556396 15.02150879 -31.00362793 15.29301758 -31.93920898 15.57275391 C-36.00521622 16.79086326 -40.0689664 18.01292644 -44.1171875 19.2890625 C-45.25414063 19.64742188 -46.39109375 20.00578125 -47.5625 20.375 C-48.55378906 20.69210937 -49.54507813 21.00921875 -50.56640625 21.3359375 C-53 22 -53 22 -56 22 C-56.06506926 23.98461237 -56.1161579 25.97431051 -56.0078125 27.95703125 C-56 30 -56 30 -57 33 C-59.8125 33.9375 -59.8125 33.9375 -63 34 C-65.375 32.3125 -65.375 32.3125 -67 30 C-67 28.68 -67 27.36 -67 26 C-68.96128755 25.1762044 -68.96128755 25.1762044 -71 25 C-61.78450681 20.7137241 -51.87272569 18.22068534 -42.109375 15.4921875 C-41.34602341 15.27832397 -40.58267181 15.06446045 -39.79618835 14.84411621 C-36.636951 13.95961991 -33.47765124 13.07562572 -30.31494141 12.20361328 C-27.97351697 11.55697014 -25.6350435 10.90049113 -23.296875 10.2421875 C-22.57723572 10.0463205 -21.85759644 9.85045349 -21.1161499 9.64865112 C-19.39262247 9.15896653 -17.69291868 8.58682549 -16 8 C-15.67 7.34 -15.34 6.68 -15 6 C-13.07801205 4.89270545 -11.11181397 3.86126017 -9.125 2.875 C-8.05507812 2.33617187 -6.98515625 1.79734375 -5.8828125 1.2421875 C-3 0 -3 0 0 0 Z " transform="translate(145,356)" style="fill: #525B98;"/><path d="M0 0 C8.00549687 6.28588361 16.45665288 13.26581077 21.69140625 22.11328125 C21.69140625 23.10328125 21.69140625 24.09328125 21.69140625 25.11328125 C22.68140625 25.44328125 23.67140625 25.77328125 24.69140625 26.11328125 C25.76635742 27.63208008 25.76635742 27.63208008 26.734375 29.5703125 C27.08564453 30.27091797 27.43691406 30.97152344 27.79882812 31.69335938 C28.15525391 32.43005859 28.51167969 33.16675781 28.87890625 33.92578125 C29.24693359 34.65087891 29.61496094 35.37597656 29.99414062 36.12304688 C31.84626675 39.87884252 32.69140625 41.78620074 32.69140625 46.11328125 C33.35140625 46.11328125 34.01140625 46.11328125 34.69140625 46.11328125 C35.6232797 48.32568829 36.37056342 50.44812769 37.06640625 52.73828125 C37.28192139 53.43961182 37.49743652 54.14094238 37.71948242 54.86352539 C39.52546311 61.02061008 40.83455166 67.24480971 42.00390625 73.55078125 C42.17519043 74.46102051 42.34647461 75.37125977 42.52294922 76.30908203 C43.29185474 80.69288364 43.76501187 84.81766516 43.671875 89.2734375 C43.67832031 90.54058594 43.68476563 91.80773437 43.69140625 93.11328125 C44.35140625 93.11328125 45.01140625 93.11328125 45.69140625 93.11328125 C46.02292488 95.52148263 46.2113131 97.81618685 46.31640625 100.23828125 C46.35362793 100.96821289 46.39084961 101.69814453 46.42919922 102.45019531 C46.92520874 112.97839736 46.7446816 123.46123602 46.31640625 133.98828125 C46.28562988 134.88772461 46.25485352 135.78716797 46.22314453 136.71386719 C46.12316493 138.85202015 45.91838074 140.9848601 45.69140625 143.11328125 C45.03140625 143.11328125 44.37140625 143.11328125 43.69140625 143.11328125 C43.36140625 144.10328125 43.03140625 145.09328125 42.69140625 146.11328125 C42.36140625 145.45328125 42.03140625 144.79328125 41.69140625 144.11328125 C33.47562594 142.7041021 24.92591521 143.04006478 16.61328125 143.17578125 C13.69140625 143.11328125 13.69140625 143.11328125 12.69140625 142.11328125 C-0.76908089 140.49391736 -14.51744991 140.96031698 -28.04467773 140.98291016 C-31.86641396 140.98827468 -35.68803294 140.98293491 -39.50976562 140.9765625 C-60.01192069 140.70128615 -60.01192069 140.70128615 -80.30859375 143.11328125 C-82.72486467 143.15701466 -85.14225443 143.15305638 -87.55859375 143.11328125 C-93.25127015 143.06867654 -98.67559018 143.32268426 -104.30859375 144.11328125 C-104.14359375 144.71140625 -103.97859375 145.30953125 -103.80859375 145.92578125 C-103.30859375 148.11328125 -103.30859375 148.11328125 -103.30859375 151.11328125 C-102.35880478 153.26356429 -102.35880478 153.26356429 -101.30859375 155.11328125 C-103.74609375 155.73828125 -103.74609375 155.73828125 -106.30859375 156.11328125 C-107.97528835 152.77989204 -107.26625162 149.11559423 -107.1484375 145.44921875 C-107.20128906 144.67835938 -107.25414062 143.9075 -107.30859375 143.11328125 C-107.96859375 143.11328125 -108.62859375 143.11328125 -109.30859375 143.11328125 C-109.63571584 140.04574013 -109.82840165 137.06618565 -109.93359375 133.98828125 C-109.97009033 133.0849707 -110.00658691 132.18166016 -110.04418945 131.25097656 C-110.14682673 128.5386604 -110.23140669 125.82643157 -110.30859375 123.11328125 C-110.33195801 122.34725586 -110.35532227 121.58123047 -110.37939453 120.79199219 C-110.61349275 112.2346202 -110.61349275 112.2346202 -110.30859375 109.11328125 C-109.64859375 109.11328125 -108.98859375 109.11328125 -108.30859375 109.11328125 C-108.26365558 106.98834792 -108.33291433 104.8613038 -108.43359375 102.73828125 C-108.84138056 85.46731033 -105.10458675 67.65050194 -100.30859375 51.11328125 C-100.02886719 50.13488281 -99.74914062 49.15648437 -99.4609375 48.1484375 C-98.83481207 46.10645053 -98.08956284 44.10120256 -97.30859375 42.11328125 C-96.64859375 42.11328125 -95.98859375 42.11328125 -95.30859375 42.11328125 C-94.62620021 40.11859243 -93.96488891 38.11670859 -93.30859375 36.11328125 C-92.52780587 34.32823861 -91.71305107 32.55779998 -90.87109375 30.80078125 C-90.45988281 29.93839844 -90.04867187 29.07601562 -89.625 28.1875 C-88.30859375 26.11328125 -88.30859375 26.11328125 -85.30859375 25.11328125 C-84.94477506 23.78794173 -84.61676786 22.45265334 -84.30859375 21.11328125 C-79.76570416 14.17061665 -73.48765394 6.47199636 -66.30859375 2.11328125 C-65.31859375 2.11328125 -64.32859375 2.11328125 -63.30859375 2.11328125 C-62.97859375 1.12328125 -62.64859375 0.13328125 -62.30859375 -0.88671875 C-45.11834706 -13.57475797 -16.92439862 -11.77897787 0 0 Z " transform="translate(241.30859375,43.88671875)" style="fill: #71AD44;"/><path d="M0 0 C3.81962055 0.00535404 7.63912328 0.00003187 11.45874023 -0.00634766 C44.15322146 -0.01646113 44.15322146 -0.01646113 52.39428711 2.13037109 C54.74802785 2.17515094 57.10294263 2.16931785 59.45678711 2.13037109 C64.23719671 2.09471384 68.99738276 2.12391025 73.76928711 2.44287109 C75.08026367 2.52988281 75.08026367 2.52988281 76.41772461 2.61865234 C77.06999023 2.78751953 77.72225586 2.95638672 78.39428711 3.13037109 C82.03830843 14.06243506 77.34453597 29.68748952 75.39428711 40.81787109 C75.11749399 42.43688343 74.84144927 44.05602389 74.56616211 45.67529297 C73.85641806 49.82965542 73.13771713 53.98188605 72.39428711 58.13037109 C72.24217773 59.11626221 72.09006836 60.10215332 71.93334961 61.11791992 C71.66651367 62.11408325 71.66651367 62.11408325 71.39428711 63.13037109 C70.73428711 63.13037109 70.07428711 63.13037109 69.39428711 63.13037109 C68.99237392 64.89919512 68.99237392 64.89919512 68.89404297 67.1105957 C68.48079606 71.71408644 67.58406686 75.98760317 66.39819336 80.44677734 C66.20458725 81.18870834 66.01098114 81.93063934 65.81150818 82.6950531 C65.4054258 84.24279086 64.99606056 85.78967084 64.58349609 87.33569336 C63.95076738 89.71551249 63.33519749 92.0993651 62.72045898 94.48388672 C62.32239272 95.99262035 61.92334087 97.50109437 61.52319336 99.00927734 C61.33978897 99.72475235 61.15638458 100.44022736 60.96742249 101.17738342 C60.51382079 102.84921048 59.96407572 104.49449178 59.39428711 106.13037109 C58.73428711 106.13037109 58.07428711 106.13037109 57.39428711 106.13037109 C56.76399563 108.16489547 56.76399563 108.16489547 56.39428711 110.69287109 C55.63160736 114.94813987 54.65227619 118.99697841 53.39428711 123.13037109 C54.38428711 123.13037109 55.37428711 123.13037109 56.39428711 123.13037109 C56.39428711 123.79037109 56.39428711 124.45037109 56.39428711 125.13037109 C57.36366211 125.23349609 58.33303711 125.33662109 59.33178711 125.44287109 C65.01304036 126.06896839 70.38299556 129.11907954 74.39428711 133.13037109 C74.74161284 136.88148899 74.8542046 139.29415748 73.01928711 142.63037109 C72.48303711 143.12537109 71.94678711 143.62037109 71.39428711 144.13037109 C70.73428711 143.80037109 70.07428711 143.47037109 69.39428711 143.13037109 C69.39428711 142.47037109 69.39428711 141.81037109 69.39428711 141.13037109 C70.05428711 141.13037109 70.71428711 141.13037109 71.39428711 141.13037109 C69.0207175 135.93818756 65.37550266 133.56962613 60.39428711 131.13037109 C58.73552303 130.62452508 57.06863398 130.14446938 55.39428711 129.69287109 C53.08569336 129.01708984 53.08569336 129.01708984 51.39428711 128.13037109 C51.35429511 126.13077097 51.35081912 124.12989867 51.39428711 122.13037109 C49.26754241 121.51661256 47.35440386 121.44266337 45.14428711 121.43115234 C44.56678711 121.33189453 43.98928711 121.23263672 43.39428711 121.13037109 C43.39428711 120.14037109 43.39428711 119.15037109 43.39428711 118.13037109 C44.38428711 117.80037109 45.37428711 117.47037109 46.39428711 117.13037109 C46.77491931 114.80428539 47.10698656 112.46981845 47.39428711 110.13037109 C48.05428711 109.47037109 48.71428711 108.81037109 49.39428711 108.13037109 C51.70611241 104.66263315 51.69115655 103.13176768 51.80834961 99.02880859 C51.84702148 97.81580078 51.88569336 96.60279297 51.92553711 95.35302734 C51.95647461 94.08330078 51.98741211 92.81357422 52.01928711 91.50537109 C52.05795898 90.25884766 52.09663086 89.01232422 52.13647461 87.72802734 C52.24091669 84.19564692 52.32048526 80.66350455 52.39428711 77.13037109 C52.42490234 76.17163086 52.45551758 75.21289062 52.48706055 74.22509766 C52.53241282 72.193793 52.47795665 70.16045849 52.39428711 68.13037109 C51.73428711 68.13037109 51.07428711 68.13037109 50.39428711 68.13037109 C49.72762044 66.13037109 49.06095378 64.13037109 48.39428711 62.13037109 C47.73428711 62.13037109 47.07428711 62.13037109 46.39428711 62.13037109 C46.39428711 61.32599609 46.39428711 60.52162109 46.39428711 59.69287109 C45.89928711 58.42443359 45.89928711 58.42443359 45.39428711 57.13037109 C37.01472114 54.91349705 27.12703244 55.74513894 18.45678711 55.50537109 C17.66992523 55.48291321 16.88306335 55.46045532 16.07235718 55.43731689 C1.48891409 55.03687057 -13.04199764 55.13988506 -27.60571289 56.13037109 C-28.49105713 56.18878174 -29.37640137 56.24719238 -30.28857422 56.30737305 C-32.40448971 56.48677996 -34.50872896 56.79579134 -36.60571289 57.13037109 C-38.00829165 59.51156356 -38.00829165 59.51156356 -38.60571289 62.13037109 C-39.93904622 62.79703776 -41.27237956 63.46370443 -42.60571289 64.13037109 C-42.60571289 65.45037109 -42.60571289 66.77037109 -42.60571289 68.13037109 C-43.26571289 68.13037109 -43.92571289 68.13037109 -44.60571289 68.13037109 C-44.52192383 68.76845703 -44.43813477 69.40654297 -44.35180664 70.06396484 C-44.2499707 70.89025391 -44.14813477 71.71654297 -44.04321289 72.56787109 C-43.93879883 73.39158203 -43.83438477 74.21529297 -43.72680664 75.06396484 C-43.6868457 75.74587891 -43.64688477 76.42779297 -43.60571289 77.13037109 C-43.93571289 77.46037109 -44.26571289 77.79037109 -44.60571289 78.13037109 C-44.57377432 79.52726339 -44.4737948 80.92274957 -44.34399414 82.31396484 C-44.27760742 83.15894531 -44.2112207 84.00392578 -44.14282227 84.87451172 C-43.99332193 86.66721579 -43.83189417 88.45896588 -43.65844727 90.24951172 C-43.59592773 91.09578125 -43.5334082 91.94205078 -43.46899414 92.81396484 C-43.3997876 93.59312256 -43.33058105 94.37228027 -43.25927734 95.17504883 C-43.60571289 97.13037109 -43.60571289 97.13037109 -45.23925781 98.40014648 C-48.29474363 99.34298751 -50.43357773 99.66210542 -53.60571289 99.13037109 C-54.92944336 96.73120117 -54.92944336 96.73120117 -55.72290039 93.39990234 C-56.16762695 91.60649414 -56.16762695 91.60649414 -56.62133789 89.77685547 C-56.90493164 88.51164062 -57.18852539 87.24642578 -57.48071289 85.94287109 C-57.78750977 84.69699219 -58.09430664 83.45111328 -58.41040039 82.16748047 C-60.61811446 72.97688507 -60.61811446 72.97688507 -60.56323242 69.23071289 C-60.58426025 68.1910437 -60.58426025 68.1910437 -60.60571289 67.13037109 C-61.26571289 67.13037109 -61.92571289 67.13037109 -62.60571289 67.13037109 C-63.35180664 64.61450195 -63.35180664 64.61450195 -64.04321289 61.09521484 C-64.29844727 59.809375 -64.55368164 58.52353516 -64.81665039 57.19873047 C-65.01145996 56.17815552 -65.01145996 56.17815552 -65.21020508 55.13696289 C-65.59447558 53.12665886 -65.9931465 51.11969169 -66.39477539 49.11279297 C-71.18267839 24.84815955 -71.18267839 24.84815955 -70.60571289 16.13037109 C-68.60571289 14.75537109 -68.60571289 14.75537109 -66.60571289 14.13037109 C-67.12133789 13.59412109 -67.63696289 13.05787109 -68.16821289 12.50537109 C-69.60571289 10.13037109 -69.60571289 10.13037109 -69.51196289 7.06787109 C-69.21290039 6.09849609 -68.91383789 5.12912109 -68.60571289 4.13037109 C-66.44555664 3.10693359 -66.44555664 3.10693359 -63.54321289 2.75537109 C-62.47329102 2.62517578 -61.40336914 2.49498047 -60.30102539 2.36083984 C-55.45400866 2.05854176 -50.63011556 2.0079293 -45.77539062 2.11523438 C-44.05254829 2.15193997 -42.32888232 2.14520773 -40.60571289 2.13037109 C-40.27571289 1.80037109 -39.94571289 1.47037109 -39.60571289 1.13037109 C-26.5487823 -0.58196932 -13.13188215 -0.0218963 0 0 Z " transform="translate(205.605712890625,183.86962890625)" style="fill: #36966B;"/><path d="M0 0 C8.00549687 6.28588361 16.45665288 13.26581077 21.69140625 22.11328125 C21.69140625 23.10328125 21.69140625 24.09328125 21.69140625 25.11328125 C22.68140625 25.44328125 23.67140625 25.77328125 24.69140625 26.11328125 C25.76635742 27.63208008 25.76635742 27.63208008 26.734375 29.5703125 C27.08564453 30.27091797 27.43691406 30.97152344 27.79882812 31.69335938 C28.15525391 32.43005859 28.51167969 33.16675781 28.87890625 33.92578125 C29.24693359 34.65087891 29.61496094 35.37597656 29.99414062 36.12304688 C31.84626675 39.87884252 32.69140625 41.78620074 32.69140625 46.11328125 C33.35140625 46.11328125 34.01140625 46.11328125 34.69140625 46.11328125 C35.66539032 48.61347711 36.48773335 51.04876187 37.25390625 53.61328125 C37.58551758 54.65742187 37.58551758 54.65742187 37.92382812 55.72265625 C39.39290172 60.51600816 40.19149735 65.12542612 40.69140625 70.11328125 C37.64753901 70.19554793 35.61965277 70.08936342 32.69140625 69.11328125 C32.69140625 68.45328125 32.69140625 67.79328125 32.69140625 67.11328125 C31.70140625 67.44328125 30.71140625 67.77328125 29.69140625 68.11328125 C28.32787721 68.20488607 26.96035098 68.24394283 25.59375 68.24609375 C24.79630371 68.24810791 23.99885742 68.25012207 23.17724609 68.25219727 C22.33629395 68.24760498 21.4953418 68.2430127 20.62890625 68.23828125 C19.77506348 68.23562256 18.9212207 68.23296387 18.04150391 68.23022461 C1.68535937 68.10723437 1.68535937 68.10723437 -0.30859375 66.11328125 C-2.63677339 65.74567394 -4.97043225 65.41086544 -7.30859375 65.11328125 C-7.30859375 65.77328125 -7.30859375 66.43328125 -7.30859375 67.11328125 C-9.09289551 67.36724854 -9.09289551 67.36724854 -11.62304688 67.37207031 C-12.56402222 67.37837463 -13.50499756 67.38467896 -14.4744873 67.39117432 C-16.01658875 67.38510162 -16.01658875 67.38510162 -17.58984375 67.37890625 C-19.15466492 67.38177643 -19.15466492 67.38177643 -20.75109863 67.38470459 C-22.96378825 67.38606978 -25.17648578 67.38235019 -27.38916016 67.37402344 C-30.79347573 67.36332874 -34.19726352 67.37390767 -37.6015625 67.38671875 C-39.74349076 67.38539721 -41.88541869 67.38283495 -44.02734375 67.37890625 C-45.05541138 67.38295471 -46.083479 67.38700317 -47.1427002 67.39117432 C-48.08367554 67.38487 -49.02465088 67.37856567 -49.99414062 67.37207031 C-50.82909058 67.37047913 -51.66404053 67.36888794 -52.52429199 67.36724854 C-53.11311157 67.28343933 -53.70193115 67.19963013 -54.30859375 67.11328125 C-54.30859375 66.45328125 -54.30859375 65.79328125 -54.30859375 65.11328125 C-55.48421875 65.42265625 -56.65984375 65.73203125 -57.87109375 66.05078125 C-63.40315882 67.28787297 -68.92191036 67.57663123 -74.5703125 67.89453125 C-78.73923697 68.13848085 -82.88428551 68.51484802 -87.0390625 68.9296875 C-90.31980546 69.19508323 -93.47078237 69.09853683 -96.74609375 68.80078125 C-101.28415996 69.19885723 -102.3104751 70.84774893 -105.30859375 74.11328125 C-100.69408996 49.11187006 -100.69408996 49.11187006 -97.30859375 42.11328125 C-96.64859375 42.11328125 -95.98859375 42.11328125 -95.30859375 42.11328125 C-94.62620021 40.11859243 -93.96488891 38.11670859 -93.30859375 36.11328125 C-92.52780587 34.32823861 -91.71305107 32.55779998 -90.87109375 30.80078125 C-90.45988281 29.93839844 -90.04867187 29.07601562 -89.625 28.1875 C-88.30859375 26.11328125 -88.30859375 26.11328125 -85.30859375 25.11328125 C-84.94477506 23.78794173 -84.61676786 22.45265334 -84.30859375 21.11328125 C-79.76570416 14.17061665 -73.48765394 6.47199636 -66.30859375 2.11328125 C-65.31859375 2.11328125 -64.32859375 2.11328125 -63.30859375 2.11328125 C-62.97859375 1.12328125 -62.64859375 0.13328125 -62.30859375 -0.88671875 C-45.11834706 -13.57475797 -16.92439862 -11.77897787 0 0 Z " transform="translate(241.30859375,43.88671875)" style="fill: #B7BF2B;"/><path d="M0 0 C3.84690348 0.50751831 7.52060637 0.52627474 11.3984375 0.46484375 C13.7731465 0.42766631 16.14890999 0.41747163 18.5234375 0.46484375 C18.8534375 0.79484375 19.1834375 1.12484375 19.5234375 1.46484375 C22.58254854 1.91371454 25.64077788 2.28227706 28.71289062 2.62695312 C32.85870997 3.13034481 36.69153676 3.76634787 40.5234375 5.46484375 C41.0859375 8.58984375 41.0859375 8.58984375 40.5234375 11.46484375 C39.5334375 11.46484375 38.5434375 11.46484375 37.5234375 11.46484375 C37.1934375 10.80484375 36.8634375 10.14484375 36.5234375 9.46484375 C34.43995594 8.84601123 34.43995594 8.84601123 32.0234375 8.58984375 C31.20875 8.46867188 30.3940625 8.3475 29.5546875 8.22265625 C28.884375 8.30257812 28.2140625 8.3825 27.5234375 8.46484375 C26.65792152 10.41585978 26.65792152 10.41585978 26.5234375 12.46484375 C28.0703125 12.40296875 28.0703125 12.40296875 29.6484375 12.33984375 C36.28245509 12.55384432 36.28245509 12.55384432 39.5234375 14.46484375 C40.37771941 17.94223531 40.17453238 21.3445316 40.0234375 24.90234375 C40.013125 25.86978516 40.0028125 26.83722656 39.9921875 27.83398438 C39.83304357 35.00043465 39.83304357 35.00043465 37.5234375 38.46484375 C37.1934375 37.80484375 36.8634375 37.14484375 36.5234375 36.46484375 C28.30765719 35.0556646 19.75794646 35.39162728 11.4453125 35.52734375 C8.5234375 35.46484375 8.5234375 35.46484375 7.5234375 34.46484375 C-5.93704964 32.84547986 -19.68541866 33.31187948 -33.21264648 33.33447266 C-37.03438271 33.33983718 -40.85600169 33.33449741 -44.67773438 33.328125 C-65.17988944 33.05284865 -65.17988944 33.05284865 -85.4765625 35.46484375 C-87.89283342 35.50857716 -90.31022318 35.50461888 -92.7265625 35.46484375 C-98.4192389 35.42023904 -103.84355893 35.67424676 -109.4765625 36.46484375 C-109.3115625 37.06296875 -109.1465625 37.66109375 -108.9765625 38.27734375 C-108.4765625 40.46484375 -108.4765625 40.46484375 -108.4765625 43.46484375 C-107.52677353 45.61512679 -107.52677353 45.61512679 -106.4765625 47.46484375 C-108.9140625 48.08984375 -108.9140625 48.08984375 -111.4765625 48.46484375 C-113.1432571 45.13145454 -112.43422037 41.46715673 -112.31640625 37.80078125 C-112.36925781 37.02992188 -112.42210937 36.2590625 -112.4765625 35.46484375 C-113.1365625 35.46484375 -113.7965625 35.46484375 -114.4765625 35.46484375 C-114.73535156 32.89453125 -114.73535156 32.89453125 -114.7421875 29.33984375 C-114.74476563 28.0765625 -114.74734375 26.81328125 -114.75 25.51171875 C-114.74581055 24.84849609 -114.74162109 24.18527344 -114.73730469 23.50195312 C-114.72660896 21.4736538 -114.73718779 19.44624023 -114.75 17.41796875 C-114.74742187 16.1546875 -114.74484375 14.89140625 -114.7421875 13.58984375 C-114.73993164 12.41679687 -114.73767578 11.24375 -114.73535156 10.03515625 C-114.64995117 9.18695313 -114.56455078 8.33875 -114.4765625 7.46484375 C-113.8165625 7.46484375 -113.1565625 7.46484375 -112.4765625 7.46484375 C-112.1465625 6.47484375 -111.8165625 5.48484375 -111.4765625 4.46484375 C-108.56738984 3.55305903 -105.82946653 2.86451595 -102.8515625 2.27734375 C-101.57007324 2.01473755 -101.57007324 2.01473755 -100.26269531 1.74682617 C-93.66397218 0.48667895 -87.49477207 0.14055217 -80.7734375 0.421875 C-77.22856252 0.46807598 -73.977501 0.00463603 -70.4765625 -0.53515625 C-47.6847229 -2.57734542 -22.66944898 -3.48956687 0 0 Z " transform="translate(246.4765625,151.53515625)" style="fill: #51A356;"/><path d="M0 0 C1.47723541 -0.00472824 1.47723541 -0.00472824 2.98431396 -0.009552 C4.05715637 -0.00752777 5.12999878 -0.00550354 6.23535156 -0.00341797 C7.33188049 -0.00437469 8.42840942 -0.00533142 9.5581665 -0.00631714 C11.88513242 -0.00699936 14.21210022 -0.00514215 16.5390625 -0.00097656 C20.09672352 0.00435073 23.65425711 -0.00090958 27.21191406 -0.00732422 C29.46972684 -0.00666304 31.72753954 -0.00538107 33.98535156 -0.00341797 C35.05009705 -0.0054422 36.11484253 -0.00746643 37.21185303 -0.009552 C38.20928528 -0.00639984 39.20671753 -0.00324768 40.234375 0 C41.54556305 0.00119339 41.54556305 0.00119339 42.88323975 0.00241089 C45.46589975 0.13397535 47.84725572 0.60771502 50.37597656 1.12939453 C52.91596433 1.00404622 52.91596433 1.00404622 55.43847656 0.62939453 C58.81430433 0.17165517 61.10684343 0.27140365 64.37597656 1.12939453 C66.22904083 1.19663199 68.08433186 1.21459834 69.93847656 1.19189453 C70.88851562 1.18287109 71.83855469 1.17384766 72.81738281 1.16455078 C73.66171875 1.15294922 74.50605469 1.14134766 75.37597656 1.12939453 C79.022767 1.12939453 81.93306977 1.96010543 85.37597656 3.12939453 C85.37597656 3.78939453 85.37597656 4.44939453 85.37597656 5.12939453 C86.03597656 5.12939453 86.69597656 5.12939453 87.37597656 5.12939453 C90.10048124 11.87382876 91.80805087 18.88834191 92.37597656 26.12939453 C89.33210932 26.21166121 87.30422308 26.1054767 84.37597656 25.12939453 C84.37597656 24.46939453 84.37597656 23.80939453 84.37597656 23.12939453 C83.38597656 23.45939453 82.39597656 23.78939453 81.37597656 24.12939453 C80.01244753 24.22099935 78.6449213 24.26005611 77.27832031 24.26220703 C76.48087402 24.26422119 75.68342773 24.26623535 74.86181641 24.26831055 C74.02086426 24.26371826 73.17991211 24.25912598 72.31347656 24.25439453 C71.45963379 24.25173584 70.60579102 24.24907715 69.72607422 24.24633789 C53.36992969 24.12334765 53.36992969 24.12334765 51.37597656 22.12939453 C49.04779693 21.76178722 46.71413806 21.42697872 44.37597656 21.12939453 C44.37597656 21.78939453 44.37597656 22.44939453 44.37597656 23.12939453 C42.5916748 23.38336182 42.5916748 23.38336182 40.06152344 23.38818359 C39.1205481 23.39448792 38.17957275 23.40079224 37.21008301 23.4072876 C35.66798157 23.4012149 35.66798157 23.4012149 34.09472656 23.39501953 C32.5299054 23.39788971 32.5299054 23.39788971 30.93347168 23.40081787 C28.72078206 23.40218306 26.50808453 23.39846347 24.29541016 23.39013672 C20.89109459 23.37944202 17.48730679 23.39002095 14.08300781 23.40283203 C11.94107955 23.4015105 9.79915163 23.39894823 7.65722656 23.39501953 C6.62915894 23.39906799 5.60109131 23.40311646 4.54187012 23.4072876 C3.60089478 23.40098328 2.65991943 23.39467896 1.69042969 23.38818359 C0.85547974 23.38659241 0.02052979 23.38500122 -0.83972168 23.38336182 C-1.72295105 23.25764801 -1.72295105 23.25764801 -2.62402344 23.12939453 C-2.62402344 22.46939453 -2.62402344 21.80939453 -2.62402344 21.12939453 C-4.38746094 21.59345703 -4.38746094 21.59345703 -6.18652344 22.06689453 C-11.7185885 23.30398625 -17.23734005 23.59274451 -22.88574219 23.91064453 C-27.05466666 24.15459413 -31.1997152 24.5309613 -35.35449219 24.94580078 C-38.63523515 25.21119651 -41.78621205 25.11465011 -45.06152344 24.81689453 C-49.59958964 25.21497051 -50.62590479 26.86386221 -53.62402344 30.12939453 C-53.00705918 26.89863918 -52.37903191 23.67012942 -51.74902344 20.44189453 C-51.575 19.52988281 -51.40097656 18.61787109 -51.22167969 17.67822266 C-48.96550843 6.18846163 -48.96550843 6.18846163 -45.24902344 3.25439453 C-38.78033488 1.2468705 -32.17893451 2.6335367 -25.62402344 3.87939453 C-22.62647238 4.48274577 -22.62647238 4.48274577 -20.85449219 2.65283203 C-17.78609914 0.55708196 -15.6077547 0.86461641 -11.93652344 1.00439453 C-9.83311511 1.07458613 -7.72859442 1.12352404 -5.62402344 1.12939453 C-4.00573355 -0.48889535 -2.23579541 0.00204237 0 0 Z " transform="translate(189.6240234375,87.87060546875)" style="fill: #91B633;"/><path d="M0 0 C0 0.66 0 1.32 0 2 C0.763125 1.855625 1.52625 1.71125 2.3125 1.5625 C4.1378125 1.2840625 4.1378125 1.2840625 6 1 C6.8345874 0.80744629 7.6691748 0.61489258 8.52905273 0.41650391 C11.52367731 -0.1248169 13.9737522 -0.37784335 17 0 C20.11424524 2.39852787 21.81708984 5.43107462 23.75 8.8125 C24.85018167 10.57687202 25.95044131 12.34119543 27.05078125 14.10546875 C27.5607666 14.9567334 28.07075195 15.80799805 28.59619141 16.68505859 C30.25669966 19.4233089 32.06248097 22.02977498 33.9375 24.625 C36.45936023 28.20739803 38.90060943 31.83502735 41.3125 35.4921875 C42.64551409 37.47319455 43.99959178 39.43142497 45.375 41.3828125 C45.78766113 41.97022217 46.20032227 42.55763184 46.62548828 43.1628418 C47.44806844 44.33113706 48.27447496 45.49674909 49.10498047 46.65942383 C52 50.77820752 52 50.77820752 52 53 C49.34130859 53.50244141 49.34130859 53.50244141 45.6484375 53.8515625 C44.67096054 53.94719986 44.67096054 53.94719986 43.67373657 54.04476929 C42.28699649 54.17865216 40.89979091 54.30778265 39.51220703 54.43261719 C37.40422144 54.6223696 35.29787474 54.82540295 33.19140625 55.03125 C29.46268114 55.38651728 25.73652778 55.73496413 22 56 C20.87287598 56.0932959 19.74575195 56.1865918 18.58447266 56.28271484 C17.73159668 56.18941895 16.8787207 56.09612305 16 56 C15.74089958 53.95958418 15.49288249 51.91382305 15.39453125 49.859375 C15.26433594 49.24578125 15.13414062 48.6321875 15 48 C12.20518191 46.57562248 12.20518191 46.57562248 9 47 C8.38640625 47.55945313 7.7728125 48.11890625 7.140625 48.6953125 C6.43421875 49.12585938 5.7278125 49.55640625 5 50 C-1.68839395 47.37846854 -6.72709942 42.61581219 -11 37 C-12.010625 36.2575 -13.02125 35.515 -14.0625 34.75 C-18.14175698 31.48237813 -19.65533575 26.92531307 -21 22 C-21.30878438 18.10931677 -21.22635761 15.67907283 -20 12 C-23.06274728 12.91584173 -26.12514372 13.83285178 -29.1875 14.75 C-30.09556396 15.02150879 -31.00362793 15.29301758 -31.93920898 15.57275391 C-36.00521622 16.79086326 -40.0689664 18.01292644 -44.1171875 19.2890625 C-45.25414063 19.64742188 -46.39109375 20.00578125 -47.5625 20.375 C-48.55378906 20.69210937 -49.54507813 21.00921875 -50.56640625 21.3359375 C-53 22 -53 22 -56 22 C-56.06506926 23.98461237 -56.1161579 25.97431051 -56.0078125 27.95703125 C-56 30 -56 30 -57 33 C-59.8125 33.9375 -59.8125 33.9375 -63 34 C-65.375 32.3125 -65.375 32.3125 -67 30 C-67 28.68 -67 27.36 -67 26 C-68.96128755 25.1762044 -68.96128755 25.1762044 -71 25 C-61.78450681 20.7137241 -51.87272569 18.22068534 -42.109375 15.4921875 C-41.34602341 15.27832397 -40.58267181 15.06446045 -39.79618835 14.84411621 C-36.636951 13.95961991 -33.47765124 13.07562572 -30.31494141 12.20361328 C-27.97351697 11.55697014 -25.6350435 10.90049113 -23.296875 10.2421875 C-22.57723572 10.0463205 -21.85759644 9.85045349 -21.1161499 9.64865112 C-19.39262247 9.15896653 -17.69291868 8.58682549 -16 8 C-15.67 7.34 -15.34 6.68 -15 6 C-13.07801205 4.89270545 -11.11181397 3.86126017 -9.125 2.875 C-8.05507812 2.33617187 -6.98515625 1.79734375 -5.8828125 1.2421875 C-3 0 -3 0 0 0 Z " transform="translate(145,356)" style="fill: #3E6D93;"/><path d="M0 0 C1.13566406 0.13019531 2.27132812 0.26039063 3.44140625 0.39453125 C4.57449219 0.51183594 5.70757812 0.62914062 6.875 0.75 C10.00390625 1.20703125 10.00390625 1.20703125 12.2265625 1.8828125 C14.3445355 2.48189802 14.3445355 2.48189802 17.00390625 0.20703125 C19.81640625 1.18359375 19.81640625 1.18359375 23.00390625 2.83203125 C24.05578125 3.36054688 25.10765625 3.8890625 26.19140625 4.43359375 C29.00390625 6.20703125 29.00390625 6.20703125 30.4296875 8.28125 C32.82761519 11.21469504 35.58003074 11.4926077 39.19140625 12.39453125 C41.46875025 12.97367344 43.74191314 13.57056555 46.00390625 14.20703125 C46.00390625 14.53703125 46.00390625 14.86703125 46.00390625 15.20703125 C37.43247768 14.20703125 37.43247768 14.20703125 34.00390625 13.20703125 C34.49890625 14.19703125 34.49890625 14.19703125 35.00390625 15.20703125 C36.10422892 22.43772309 32.81994848 28.19843843 29.00390625 34.20703125 C27.36668585 35.98068669 25.7607601 37.41248277 23.8125 38.828125 C21.84469498 40.25407785 21.84469498 40.25407785 19.80859375 42.50390625 C16.36338937 45.82435393 12.67753104 48.39366716 8.69140625 51.01953125 C7.60956055 51.77266602 7.60956055 51.77266602 6.50585938 52.54101562 C1.56772549 55.79619805 -2.07109752 56.90837183 -7.99609375 56.20703125 C-9.1255542 56.09157959 -10.25501465 55.97612793 -11.41870117 55.85717773 C-16.13047439 55.35778957 -20.83932284 54.83574462 -25.54272461 54.26245117 C-27.56624495 54.01804184 -29.59113925 53.79264028 -31.6171875 53.5703125 C-32.81786865 53.42891846 -34.0185498 53.28752441 -35.25561523 53.1418457 C-36.15997314 53.16335693 -37.06433105 53.18486816 -37.99609375 53.20703125 C-38.32609375 54.19703125 -38.65609375 55.18703125 -38.99609375 56.20703125 C-39.65609375 56.20703125 -40.31609375 56.20703125 -40.99609375 56.20703125 C-37.81339171 49.42244201 -33.03839252 43.46588858 -28.37109375 37.64453125 C-25.50611904 34.02325449 -23.28712955 30.29500474 -21.12109375 26.2265625 C-19.67160966 23.62453724 -18.03000136 21.38120835 -15.99609375 19.20703125 C-15.33609375 19.20703125 -14.67609375 19.20703125 -13.99609375 19.20703125 C-13.85945313 18.66046875 -13.7228125 18.11390625 -13.58203125 17.55078125 C-12.81802588 14.49475978 -11.33701441 12.34245369 -9.62109375 9.70703125 C-9.01523438 8.76859375 -8.409375 7.83015625 -7.78515625 6.86328125 C-7.19476563 5.98671875 -6.604375 5.11015625 -5.99609375 4.20703125 C-5.55910156 3.42972656 -5.12210938 2.65242188 -4.671875 1.8515625 C-2.99609375 0.20703125 -2.99609375 0.20703125 0 0 Z " transform="translate(259.99609375,355.79296875)" style="fill: #3E6B92;"/><path d="M0 0 C2.50217587 1.76983171 2.97879683 2.91507394 3.73046875 5.92578125 C3.88128906 7.04339844 4.03210938 8.16101563 4.1875 9.3125 C4.34605469 10.42238281 4.50460938 11.53226562 4.66796875 12.67578125 C5 16 5 16 4.92578125 19.41796875 C4.95027344 20.27003906 4.97476563 21.12210937 5 22 C5.66 22 6.32 22 7 22 C9.76770106 32.38742126 9.21320226 43.70183113 9.25 54.375 C9.25776459 55.41648193 9.25776459 55.41648193 9.26568604 56.47900391 C9.36714864 73.78577175 9.36714864 73.78577175 7 80 C6.34 80 5.68 80 5 80 C4.814375 81.0209375 4.814375 81.0209375 4.625 82.0625 C3.78815063 85.99569205 2.15649815 88.60188171 0 92 C-3.01868434 93.50934217 -5.67297229 93.17510672 -9 93 C-12.028162 90.98122534 -12.66941791 90.18591027 -14.1875 87.0625 C-14.70376953 86.02802734 -14.70376953 86.02802734 -15.23046875 84.97265625 C-16 83 -16 83 -16 80 C-16.66 80 -17.32 80 -18 80 C-21.04209436 72.01390722 -20.31269797 62.78482277 -20.25 54.375 C-20.24756287 53.66811035 -20.24512573 52.9612207 -20.24261475 52.23291016 C-20.15271801 30.07933673 -20.15271801 30.07933673 -18 22 C-17.34 22 -16.68 22 -16 22 C-15.63821427 19.98793492 -15.63821427 19.98793492 -15.5625 17.5 C-15.00836831 10.97971708 -14.21203768 5.96625571 -9.1875 1.5 C-5.72407428 -0.1298474 -3.77114491 -0.58662254 0 0 Z " transform="translate(215,450)" style="fill: #422260;"/><path d="M0 0 C-0.99 0.33 -1.98 0.66 -3 1 C-3 1.66 -3 2.32 -3 3 C-5.23144531 3.86962891 -5.23144531 3.86962891 -8.328125 4.7265625 C-9.43800781 5.0359375 -10.54789063 5.3453125 -11.69140625 5.6640625 C-12.86574219 5.98117187 -14.04007813 6.29828125 -15.25 6.625 C-16.40886719 6.94984375 -17.56773438 7.2746875 -18.76171875 7.609375 C-27.45033482 10 -27.45033482 10 -32 10 C-32 10.66 -32 11.32 -32 12 C-34.07275391 12.80615234 -34.07275391 12.80615234 -36.9765625 13.5859375 C-38.03407715 13.87525146 -39.0915918 14.16456543 -40.18115234 14.46264648 C-41.88585693 14.91426147 -41.88585693 14.91426147 -43.625 15.375 C-45.92197366 15.99833445 -48.2188493 16.62203025 -50.515625 17.24609375 C-51.63130859 17.54628418 -52.74699219 17.84647461 -53.89648438 18.15576172 C-58.79387781 19.48798218 -63.6575826 20.92824099 -68.5234375 22.37109375 C-71 23 -71 23 -74 23 C-74 22.34 -74 21.68 -74 21 C-71.5002403 20.11827783 -69.05407888 19.37770255 -66.5 18.6875 C-64.91760961 18.24215955 -63.3355852 17.7955169 -61.75390625 17.34765625 C-60.54951904 17.00951904 -60.54951904 17.00951904 -59.32080078 16.66455078 C-56.0045894 15.71496869 -52.72431314 14.67221807 -49.4375 13.625 C-41.47679486 11.09900702 -33.45549821 8.78681165 -25.42358398 6.49853516 C-19.83595202 4.89098872 -14.42872918 3.07781006 -9 1 C-5.90434112 0.12279828 -3.2235347 -0.08954263 0 0 Z " transform="translate(74,382)" style="fill: #A6A6A6;"/><path d="M0 0 C5.26320483 -0.7518864 9.2217742 1.02280312 14 3 C13.35160156 3.10441406 12.70320313 3.20882813 12.03515625 3.31640625 C11.36355469 3.54199219 10.69195312 3.76757812 10 4 C9.61866701 5.9914056 9.28674418 7.99279077 9 10 C6 12 6 12 2.9375 11.8125 C0 11 0 11 -2 8 C-2.37569856 4.24301443 -2.1642235 3.24633524 0 0 Z " transform="translate(324,376)" style="fill: #F62826;"/><path d="M0 0 C3.5625 0.25 3.5625 0.25 6.5625 2.25 C6.96214378 5.3805429 7.08399743 7.38083761 5.4375 10.125 C2.63803259 11.80468045 0.76445936 11.70742277 -2.4375 11.25 C-4.875 9.5625 -4.875 9.5625 -6.4375 7.25 C-6.20592422 2.38690868 -5.03343693 0.36606814 0 0 Z " transform="translate(17.4375,422.75)" style="fill: #FF2826;"/><path d="M0 0 C6.46153846 0.46153846 6.46153846 0.46153846 9 3 C9.3125 6.5 9.3125 6.5 9 10 C5.53076119 12.31282587 4.07794425 12.42478586 0 12 C-1.9375 10.9375 -1.9375 10.9375 -3 9 C-2.66666667 2.66666667 -2.66666667 2.66666667 0 0 Z " transform="translate(362,473)" style="fill: #FF2623;"/><path d="M0 0 C0 0.66 0 1.32 0 2 C0.66 2 1.32 2 2 2 C1.98747613 5.09965798 1.86724801 8.01219074 1 11 C-1.8125 12.3125 -1.8125 12.3125 -5 12 C-7.375 10.3125 -7.375 10.3125 -9 8 C-9 6.68 -9 5.36 -9 4 C-10.96128755 3.1762044 -10.96128755 3.1762044 -13 3 C-8.47868765 0.82977007 -5.13674608 -0.62643245 0 0 Z " transform="translate(87,378)" style="fill: #F61E1C;"/><path d="M0 0 C1.670625 0.433125 1.670625 0.433125 3.375 0.875 C4.88162097 3.88824195 4.55270373 6.55786377 4.375 9.875 C2.375 11.875 2.375 11.875 -0.5625 12.125 C-3.625 11.875 -3.625 11.875 -6.625 9.875 C-7.05478394 6.57998979 -6.89266712 4.48905987 -5.5625 1.4375 C-3.625 -0.125 -3.625 -0.125 0 0 Z " transform="translate(400.625,418.125)" style="fill: #FF2321;"/><path d="M0 0 C2.875 1.125 2.875 1.125 4.4375 3.875 C4.875 7.125 4.875 7.125 3.875 10 C1.875 12.125 1.875 12.125 -1.125 12.625 C-4.125 12.125 -4.125 12.125 -6 10.9375 C-7.55823149 8.42701593 -7.62131357 7.03197947 -7.125 4.125 C-4.91906093 0.90093521 -3.94164307 0.15766572 0 0 Z " transform="translate(157.125,401.875)" style="fill: #8C455C;"/><path d="M0 0 C1.8125 1.125 1.8125 1.125 3 3 C3.39769128 6.18153026 3.55198782 8.12844028 1.8125 10.875 C-0.65507108 12.40659584 -2.14519831 12.42822025 -5 12 C-6.8125 10.875 -6.8125 10.875 -8 9 C-8.39769128 5.81846974 -8.55198782 3.87155972 -6.8125 1.125 C-4.34492892 -0.40659584 -2.85480169 -0.42822025 0 0 Z " transform="translate(303,493)" style="fill: #FF1B19;"/><path d="M0 0 C1 1 1 1 1.1328125 2.8125 C1.13023438 3.534375 1.12765625 4.25625 1.125 5 C1.12757812 5.721875 1.13015625 6.44375 1.1328125 7.1875 C1 9 1 9 0 10 C-5.73611111 10.27314815 -5.73611111 10.27314815 -8 10 C-10 8 -10 8 -10.375 4.5 C-10 1 -10 1 -8.375 -0.5 C-5.31955164 -1.14325229 -3.01547547 -0.73711623 0 0 Z " transform="translate(66,478)" style="fill: #FF1E1C;"/><path d="M0 0 C1.875 1.1875 1.875 1.1875 3 3 C3.42822025 5.85480169 3.40659584 7.34492892 1.875 9.8125 C-0.90003811 11.57002414 -2.78929745 11.46822746 -6 11 C-7.9375 9.375 -7.9375 9.375 -9 7 C-8.8125 3.8125 -8.8125 3.8125 -8 1 C-5.20129973 -0.39935013 -3.09501208 -0.25265405 0 0 Z " transform="translate(136,422)" style="fill: #F71113;"/><path d="M0 0 C1.875 1.6875 1.875 1.6875 3 4 C2.75925978 7.37036311 2.41201979 8.58798021 0 11 C-3.5 11.25 -3.5 11.25 -7 11 C-7.66 10.34 -8.32 9.68 -9 9 C-8.8125 5.5 -8.8125 5.5 -8 2 C-4.77856724 -0.14762184 -3.7404533 -0.561068 0 0 Z " transform="translate(377,394)" style="fill: #FF1A18;"/><path d="M0 0 C1.670625 0.5878125 1.670625 0.5878125 3.375 1.1875 C4.50456496 3.82503418 4.87576685 6.35389248 4.375 9.1875 C3.385 9.5175 2.395 9.8475 1.375 10.1875 C1.375 10.8475 1.375 11.5075 1.375 12.1875 C-1.39710039 12.56210816 -3.03442473 12.55406396 -5.4375 11.0625 C-7.17698782 8.31594028 -7.02269128 6.36903026 -6.625 3.1875 C-4.86458105 -0.02267574 -3.69555167 0.19114922 0 0 Z " transform="translate(268.625,439.8125)" style="fill: #F10D11;"/><path d="M0 0 C2.7211493 0.88437352 3.95082809 1.40267703 5.5 3.8125 C5.35970853 6.61832937 4.81262012 8.31888929 3.3125 10.6875 C1.5 11.8125 1.5 11.8125 -1.5625 11.75 C-4.5 10.8125 -4.5 10.8125 -5.9375 9.0625 C-6.6425101 6.24245959 -6.43897436 4.55719429 -5.5 1.8125 C-2.5 -0.1875 -2.5 -0.1875 0 0 Z " transform="translate(286.5,420.1875)" style="fill: #F61415;"/><path d="M0 0 C2 2 2 2 2.3125 4.9375 C2 8 2 8 0.875 9.9375 C-1.98139759 11.5561253 -3.9231756 10.85103654 -7 10 C-9 8 -9 8 -9.375 5.0625 C-9 2 -9 2 -7.3125 0.0625 C-4.38550346 -1.28233625 -3.01415011 -1.03115662 0 0 Z " transform="translate(402,447)" style="fill: #FF1513;"/><path d="M0 0 C3.5625 0.1875 3.5625 0.1875 5.5625 2.1875 C5.90740322 6.24011287 5.86413882 7.73504176 3.5625 11.1875 C0.0625 11.625 0.0625 11.625 -3.4375 11.1875 C-4.9375 9.5625 -4.9375 9.5625 -5.4375 7.1875 C-4.75828853 0.25954301 -4.75828853 0.25954301 0 0 Z " transform="translate(154.4375,441.8125)" style="fill: #F50C0F;"/><path d="M0 0 C1 1 1 1 1.125 4.4375 C1 8 1 8 0 10 C-5.96103896 10.55194805 -5.96103896 10.55194805 -9 8.9375 C-10.6154422 5.80758074 -9.79884015 3.31825907 -9 0 C-5.90842747 -1.54578627 -3.31526981 -0.60277633 0 0 Z " transform="translate(45,399)" style="fill: #FF1917;"/><path d="M0 0 C1.97781572 -0.01904798 3.95600159 0.00374835 5.93359375 0.0390625 C3.63670806 2.33594819 2.14431204 2.75757553 -0.94140625 3.6640625 C-2.23691406 4.05464844 -2.23691406 4.05464844 -3.55859375 4.453125 C-6.06640625 5.0390625 -6.06640625 5.0390625 -10.06640625 5.0390625 C-10.06640625 5.6990625 -10.06640625 6.3590625 -10.06640625 7.0390625 C-12.03515625 7.453125 -12.03515625 7.453125 -14.56640625 7.6640625 C-15.40171875 7.73882812 -16.23703125 7.81359375 -17.09765625 7.890625 C-17.74734375 7.93960937 -18.39703125 7.98859375 -19.06640625 8.0390625 C-19.53125 4.59765625 -19.53125 4.59765625 -19.06640625 1.0390625 C-16.25792363 0.24303859 -14.47924418 0.05828942 -11.62890625 0.1015625 C-10.90058594 0.08617432 -10.17226562 0.07078613 -9.421875 0.05493164 C-6.28107972 -0.00130368 -3.14116991 0.0400149 0 0 Z " transform="translate(243.06640625,489.9609375)" style="fill: #554487;"/><path d="M0 0 C3.5 0.375 3.5 0.375 5 2.0625 C5.60695561 4.86966969 5.36228062 6.6444447 4.5 9.375 C2.5 11.375 2.5 11.375 -0.5 11.6875 C-1.49 11.584375 -2.48 11.48125 -3.5 11.375 C-5.80163882 7.92254176 -5.84490322 6.42761287 -5.5 2.375 C-3.5 0.375 -3.5 0.375 0 0 Z " transform="translate(23.5,450.625)" style="fill: #FF1311;"/><path d="M0 0 C2 2 2 2 2.3125 5.5 C2.1578125 7.2325 2.1578125 7.2325 2 9 C-1 11 -1 11 -4.625 11.0625 C-5.73875 10.711875 -6.8525 10.36125 -8 10 C-9.125 6.625 -9.125 6.625 -9 3 C-6.936081 -0.763617 -3.96204345 -0.42149398 0 0 Z " transform="translate(215,450)" style="fill: #F40A0C;"/><path d="M0 0 C3 0.375 3 0.375 4.4375 2 C5.21218349 5.27088586 5.19453739 7.21298926 4 10.375 C0.5625 11.375 0.5625 11.375 -3 11.375 C-5 9.375 -5 9.375 -5.25 5.875 C-4.93335035 1.44190489 -4.43332652 0.55416581 0 0 Z " transform="translate(216,501.625)" style="fill: #FC0707;"/><path d="M0 0 C2.9375 0.875 2.9375 0.875 4.9375 3.875 C4.6875 6.5 4.6875 6.5 3.9375 8.875 C0.95537087 10.36606457 -1.77859658 9.99441467 -5.0625 9.875 C-6.0625 8.875 -6.0625 8.875 -6.3125 6 C-6.0625 2.875 -6.0625 2.875 -4.9375 0.9375 C-3.0625 -0.125 -3.0625 -0.125 0 0 Z " transform="translate(131.0625,496.125)" style="fill: #FF0D0C;"/><path d="M0 0 C0.33 0 0.66 0 1 0 C1.1875 2.5 1.1875 2.5 1 5 C0.34 5 -0.32 5 -1 5 C-1.12375 5.680625 -1.2475 6.36125 -1.375 7.0625 C-2.21184937 10.99569205 -3.84350185 13.60188171 -6 17 C-9.04983996 18.52491998 -11.6423369 18.23562548 -15 18 C-16.9375 16.5 -16.9375 16.5 -18 15 C-16.68 15.33 -15.36 15.66 -14 16 C-14 15.34 -14 14.68 -14 14 C-12.33388095 13.957279 -10.66617115 13.95936168 -9 14 C-8.67 13.67 -8.34 13.34 -8 13 C-8.99 12.67 -9.98 12.34 -11 12 C-11 11.34 -11 10.68 -11 10 C-9.33333333 9.33333333 -7.66666667 8.66666667 -6 8 C-6 7.34 -6 6.68 -6 6 C-5.01 5.67 -4.02 5.34 -3 5 C-2.67 4.34 -2.34 3.68 -2 3 C-1.34 3 -0.68 3 0 3 C0 2.01 0 1.02 0 0 Z " transform="translate(221,525)" style="fill: #592469;"/><path d="M0 0 C0 0.66 0 1.32 0 2 C-1.62963867 2.71435547 -1.62963867 2.71435547 -3.91796875 3.3671875 C-4.75465088 3.61130371 -5.59133301 3.85541992 -6.45336914 4.10693359 C-7.35563232 4.36039551 -8.25789551 4.61385742 -9.1875 4.875 C-11.02358513 5.40573954 -12.85952251 5.93699048 -14.6953125 6.46875 C-15.59926758 6.72785156 -16.50322266 6.98695313 -17.43457031 7.25390625 C-21.83725493 8.53432157 -26.19945968 9.9389689 -30.56640625 11.3359375 C-33 12 -33 12 -36 12 C-36 12.66 -36 13.32 -36 14 C-36.66 14 -37.32 14 -38 14 C-38.33 13.01 -38.66 12.02 -39 11 C-31.95116392 7.69727193 -24.1576227 5.93421436 -16.6875 3.8125 C-15.40033116 3.44096116 -14.11322132 3.06921785 -12.82617188 2.69726562 C-10.99989258 2.17616211 -10.99989258 2.17616211 -9.13671875 1.64453125 C-8.03030029 1.32846924 -6.92388184 1.01240723 -5.78393555 0.68676758 C-3 0 -3 0 0 0 Z " transform="translate(125,366)" style="fill: #A9A6A6;"/><path d="M0 0 C2.03125 -0.375 2.03125 -0.375 4.5 0 C5.3146875 0.103125 6.129375 0.20625 6.96875 0.3125 C7.97421875 0.6528125 7.97421875 0.6528125 9 1 C9.33 1.99 9.66 2.98 10 4 C10.99 4 11.98 4 13 4 C13.35644531 6.203125 13.35644531 6.203125 13.328125 9.25 C13.32296875 10.3328125 13.3178125 11.415625 13.3125 12.53125 C13.291875 13.6759375 13.27125 14.820625 13.25 16 C13.24484375 17.1446875 13.2396875 18.289375 13.234375 19.46875 C13.17604955 25.59292256 13.17604955 25.59292256 13 28 C12.67 28 12.34 28 12 28 C12.07392317 26.48924392 12.20668204 24.98139918 12.359375 23.4765625 C13.12763535 15.17797513 13.12763535 15.17797513 12 7 C7.75541194 4.29837706 3.90921355 4.48075626 -1 5 C-0.78125 2.5 -0.78125 2.5 0 0 Z " transform="translate(274,159)" style="fill: #6DB168;"/><path d="M0 0 C7.61207867 0.58802301 14.60826657 2.3440424 21.9375 4.4375 C23.07251953 4.75009766 24.20753906 5.06269531 25.37695312 5.38476562 C33.74497768 7.74497768 33.74497768 7.74497768 36 10 C30.37786045 9.39288482 25.03566629 8.40782283 19.5625 7 C18.84384766 6.82210938 18.12519531 6.64421875 17.38476562 6.4609375 C12.13149889 5.13149889 12.13149889 5.13149889 11 4 C8.72016124 3.46907865 6.42805916 3.03682029 4.12890625 2.59765625 C2 2 2 2 0 0 Z " transform="translate(378,391)" style="fill: #A2A2A2;"/><path d="M0 0 C6.47548543 0.5857223 12.53453161 1.70220271 18.8125 3.375 C20.06063477 3.68824219 20.06063477 3.68824219 21.33398438 4.0078125 C25.46132215 5.09343142 28.8050601 6.00638508 32 9 C24.99776728 8.31167372 18.32030814 6.7634979 11.5 5.0625 C9.83710938 4.66514648 9.83710938 4.66514648 8.140625 4.25976562 C7.09390625 4.00001953 6.0471875 3.74027344 4.96875 3.47265625 C4.01419922 3.23812744 3.05964844 3.00359863 2.07617188 2.76196289 C1.39103516 2.51051514 0.70589844 2.25906738 0 2 C0 1.34 0 0.68 0 0 Z " transform="translate(346,382)" style="fill: #A5A5A5;"/><path d="M0 0 C0.33 0 0.66 0 1 0 C1.38520074 1.71835644 1.70640232 3.45114495 2 5.1875 C2.3320329 7.12522328 2.66535616 9.06272592 3 11 C3.144375 11.94488281 3.28875 12.88976562 3.4375 13.86328125 C3.7159375 14.92095703 3.7159375 14.92095703 4 16 C4.66 16 5.32 16 6 16 C7.6875 18.875 7.6875 18.875 9 22 C8.67 22.66 8.34 23.32 8 24 C3.125 19.375 3.125 19.375 2 16 C1.34 15.67 0.68 15.34 0 15 C-1.03600876 10.1352632 -1.59278322 4.77834967 0 0 Z " transform="translate(99,444)" style="fill: #6A6EA3;"/></svg>